<svg width="41" height="37" viewBox="0 0 41 37" fill="none" xmlns="http://www.w3.org/2000/svg">
<path fill-rule="evenodd" clip-rule="evenodd" d="M19.0375 18.5601C21.5274 15.4995 22.3525 13.3205 29.3562 12.3155C30.2573 12.298 31.2856 12.1855 32.4437 12.2061C33.8107 11.8671 34.2611 11.4027 34.475 10.0616L33.825 8.94968C33.9704 7.98162 34.0105 7.4847 33.825 6.88464C32.4319 5.10118 31.4921 4.5207 29.7625 3.62824V1.00722C29.1247 0.992578 28.6812 0.965578 27.8125 1.32492C22.9375 5.21297 20.5378 8.41564 19.0375 18.5601ZM31.3308 9.06589C31.9276 9.22573 32.5053 9.02071 32.621 8.60796C32.7366 8.1952 32.3906 7.51381 31.7937 7.35397C31.1969 7.19413 30.5751 7.61636 30.4594 8.02911C30.3438 8.44187 30.7339 8.90605 31.3308 9.06589Z" fill="black"/>
<path fill-rule="evenodd" clip-rule="evenodd" d="M40 24.5097C40 30.1683 35.3074 34.7555 29.5187 34.7555C23.7301 34.7555 19.0375 30.1683 19.0375 24.5097C19.0375 18.8511 23.7301 14.2639 29.5187 14.2639C35.3074 14.2639 40 18.8511 40 24.5097ZM27.1754 29.5068L35.0597 24.7566C35.2637 24.6337 35.2661 24.3447 35.0644 24.2185L27.2631 19.3391C27.0478 19.2045 26.7651 19.3542 26.7629 19.604L26.7029 26.5751L26.6799 29.2337C26.6778 29.4835 26.9579 29.6379 27.1754 29.5068Z" fill="#C62128"/>
<path d="M35.0597 24.7566L27.1754 29.5068C26.9579 29.6379 26.6778 29.4835 26.6799 29.2337L26.7029 26.5751L26.7629 19.604C26.7651 19.3542 27.0478 19.2045 27.2631 19.3391L35.0644 24.2185C35.2661 24.3447 35.2637 24.6337 35.0597 24.7566Z" fill="#C62128"/>
<path d="M7.3375 23.3986L8.39375 20.3805H5.30625L3.275 23.3986H7.3375Z" fill="white"/>
<path fill-rule="evenodd" clip-rule="evenodd" d="M14.65 21.7538C13.3816 20.4933 12.5916 20.1595 11.1562 19.6888C9.02936 19.3679 7.57111 19.3114 5.0625 19.6888C3.26897 20.9352 2.47336 22.1622 1 24.6131C4.05381 24.1599 5.70826 24.0383 8.3125 24.6131C11.2466 25.4212 12.0818 26.2505 12.7 27.7107L14.8123 32.7144C16.3379 35.1773 16.9912 35.3581 18.6224 35.8095L18.6312 35.812C21.277 36.0335 23.0178 36.0903 27.5687 35.812L27.5027 35.8006C25.0762 35.3827 23.8122 35.165 20.3375 33.191C17.8675 31.0253 16.9886 29.2837 16.275 25.4074C16.0161 23.5289 15.601 22.8005 14.65 21.7538ZM18.3062 33.009C18.0083 33.2737 17.38 33.8191 17.25 33.8826L15.7875 32.5324L17.0875 31.4205L18.3062 33.009ZM16.275 30.2291L14.975 30.9439L14 28.4818L15.625 27.3698L16.275 30.2291ZM15.2187 25.8607L13.8375 27.211L12.6187 25.4074L14 23.0809L15.2187 25.8607ZM12.9437 21.8895L11.6437 24.9077L8.55625 23.6369L9.6125 20.7776L12.9437 21.8895ZM8.39375 20.3805L7.3375 23.3986H3.275L5.30625 20.3805H8.39375Z" fill="black"/>
<path d="M11.6437 24.9077L12.9437 21.8895L9.6125 20.7776L8.55625 23.6369L11.6437 24.9077Z" fill="white"/>
<path d="M13.8375 27.211L15.2187 25.8607L14 23.0809L12.6187 25.4074L13.8375 27.211Z" fill="white"/>
<path d="M14.975 30.9439L16.275 30.2291L15.625 27.3698L14 28.4818L14.975 30.9439Z" fill="white"/>
<path d="M17.25 33.8826C17.38 33.8191 18.0083 33.2737 18.3062 33.009L17.0875 31.4205L15.7875 32.5324L17.25 33.8826Z" fill="white"/>
<path d="M32.621 8.60796C32.5053 9.02071 31.9276 9.22573 31.3308 9.06589C30.7339 8.90605 30.3438 8.44187 30.4594 8.02911C30.5751 7.61636 31.1969 7.19413 31.7937 7.35397C32.3906 7.51381 32.7366 8.1952 32.621 8.60796Z" fill="white"/>
<path d="M27.5687 35.812C23.0178 36.0903 21.277 36.0335 18.6312 35.812M27.5687 35.812L27.5027 35.8006M27.5687 35.812C27.5467 35.8082 27.5246 35.8044 27.5027 35.8006M12.7 27.7107C12.0818 26.2505 11.2466 25.4212 8.3125 24.6131C5.70826 24.0383 4.05381 24.1599 1 24.6131C2.47336 22.1622 3.26897 20.9352 5.0625 19.6888C7.57111 19.3114 9.02936 19.3679 11.1562 19.6888C12.5916 20.1595 13.3816 20.4933 14.65 21.7538C15.601 22.8005 16.0161 23.5289 16.275 25.4074C16.9886 29.2837 17.8675 31.0253 20.3375 33.191C23.8122 35.165 25.0762 35.3827 27.5027 35.8006M12.7 27.7107C13.5495 29.9982 14.2267 31.5912 14.8123 32.7144M12.7 27.7107L14.8123 32.7144M18.6312 35.812L18.6224 35.8095M18.6312 35.812C18.6283 35.8111 18.6253 35.8103 18.6224 35.8095M14.8123 32.7144C16.3379 35.1773 16.9912 35.3581 18.6224 35.8095M19.0375 18.5601C20.5378 8.41564 22.9375 5.21297 27.8125 1.32492C28.6812 0.965578 29.1247 0.992578 29.7625 1.00722V3.62824C31.4921 4.5207 32.4319 5.10118 33.825 6.88464C34.0105 7.4847 33.9704 7.98162 33.825 8.94968L34.475 10.0616C34.2611 11.4027 33.8107 11.8671 32.4437 12.2061C31.2856 12.1855 30.2573 12.298 29.3562 12.3155C22.3525 13.3205 21.5274 15.4995 19.0375 18.5601ZM32.621 8.60796C32.5053 9.02071 31.9276 9.22573 31.3308 9.06589C30.7339 8.90605 30.3438 8.44187 30.4594 8.02911C30.5751 7.61636 31.1969 7.19413 31.7937 7.35397C32.3906 7.51381 32.7366 8.1952 32.621 8.60796ZM26.7629 19.604C26.7651 19.3542 27.0478 19.2045 27.2631 19.3391L35.0644 24.2185C35.2661 24.3447 35.2637 24.6337 35.0597 24.7566L27.1754 29.5068C26.9579 29.6379 26.6778 29.4835 26.6799 29.2337L26.7029 26.5751L26.7629 19.604ZM40 24.5097C40 30.1683 35.3074 34.7555 29.5187 34.7555C23.7301 34.7555 19.0375 30.1683 19.0375 24.5097C19.0375 18.8511 23.7301 14.2639 29.5187 14.2639C35.3074 14.2639 40 18.8511 40 24.5097ZM17.25 33.8826C17.38 33.8191 18.0083 33.2737 18.3062 33.009L17.0875 31.4205L15.7875 32.5324L17.25 33.8826ZM14.975 30.9439L16.275 30.2291L15.625 27.3698L14 28.4818L14.975 30.9439ZM13.8375 27.211L15.2187 25.8607L14 23.0809L12.6187 25.4074L13.8375 27.211ZM11.6437 24.9077L12.9437 21.8895L9.6125 20.7776L8.55625 23.6369L11.6437 24.9077ZM7.3375 23.3986L8.39375 20.3805H5.30625L3.275 23.3986H7.3375Z" stroke="black" stroke-width="0.5"/>
</svg>
